<?xml version="1.0" encoding="UTF-8"?>
<svg xmlns="http://www.w3.org/2000/svg" xmlns:xlink="http://www.w3.org/1999/xlink" width="3001" height="3001" viewBox="0 0 3001 3001">
<path fill-rule="evenodd" fill="rgb(100%, 100%, 100%)" fill-opacity="1" d="M 1 0 L 3001 0 L 3001 3000 L 1 3000 L 1 0 "/>
<path fill-rule="nonzero" fill="rgb(0%, 0%, 0%)" fill-opacity="1" d="M 1751.691406 750 C 1857.488281 750 1953.28125 792.890625 2022.609375 862.230469 C 2091.949219 931.570312 2134.839844 1027.359375 2134.839844 1133.160156 C 2134.839844 1238.960938 2091.949219 1334.75 2022.621094 1404.089844 C 1953.28125 1473.421875 1857.488281 1516.308594 1751.691406 1516.308594 C 1645.898438 1516.308594 1550.109375 1473.421875 1480.78125 1404.078125 C 1411.441406 1334.75 1368.550781 1238.960938 1368.550781 1133.160156 C 1368.550781 1027.359375 1411.441406 931.570312 1480.78125 862.230469 C 1550.109375 792.890625 1645.898438 750 1751.691406 750 Z M 1990.480469 894.371094 C 1929.378906 833.261719 1844.941406 795.460938 1751.691406 795.460938 C 1658.441406 795.460938 1574.011719 833.261719 1512.910156 894.371094 C 1451.808594 955.46875 1414.011719 1039.910156 1414.011719 1133.160156 C 1414.011719 1226.410156 1451.808594 1310.839844 1512.910156 1371.949219 C 1574.011719 1433.050781 1658.441406 1470.859375 1751.691406 1470.859375 C 1844.941406 1470.859375 1929.378906 1433.050781 1990.480469 1371.949219 C 2051.578125 1310.851562 2089.390625 1226.410156 2089.390625 1133.160156 C 2089.390625 1039.910156 2051.578125 955.46875 1990.480469 894.371094 Z M 1075.699219 2112.441406 L 1681.671875 2174.929688 C 1699.46875 2165.914062 1725.140625 2153.976562 1756.078125 2139.585938 C 1898.578125 2073.3125 2156.058594 1953.558594 2156.058594 1896.011719 C 2156.058594 1879.710938 2149.460938 1864.949219 2138.789062 1854.28125 C 2128.738281 1844.230469 2115.050781 1837.789062 2099.878906 1837.070312 L 2059.171875 1849.019531 L 1692.378906 1956.871094 C 1687.558594 1958.28125 1682.640625 1958.019531 1678.261719 1956.429688 L 1325.898438 1848.96875 C 1313.941406 1845.339844 1307.179688 1832.699219 1310.808594 1820.738281 C 1311.210938 1819.410156 1311.738281 1818.140625 1312.351562 1816.941406 L 1312.320312 1816.929688 L 1444.488281 1560.53125 C 1449.421875 1550.96875 1450.539062 1543.46875 1448.929688 1538.089844 C 1448.011719 1535.03125 1445.949219 1532.421875 1443.109375 1530.410156 C 1439.28125 1527.699219 1434.121094 1525.921875 1428.160156 1525.261719 C 1414.410156 1523.730469 1397.601562 1528.03125 1382.140625 1539.699219 C 1379.421875 1541.75 1376.671875 1543.789062 1374.101562 1545.578125 C 1371.210938 1547.589844 1368.070312 1549.648438 1364.710938 1551.679688 C 1330.820312 1572.121094 1287.359375 1600.261719 1242.378906 1630.171875 C 1184.730469 1668.53125 1122.929688 1710.941406 1075.699219 1743.699219 Z M 1683.679688 2220.707031 L 1075.699219 2158.015625 L 1075.699219 2227.273438 C 1075.699219 2239.820312 1065.519531 2250 1052.96875 2250 L 823.203125 2250 C 810.65625 2250 800.476562 2239.820312 800.476562 2227.273438 L 800.476562 1625.21875 C 800.476562 1612.671875 810.65625 1602.488281 823.203125 1602.488281 L 1052.96875 1602.488281 C 1065.519531 1602.488281 1075.699219 1612.671875 1075.699219 1625.21875 L 1075.699219 1688.480469 C 1117.789062 1659.449219 1168.121094 1625.101562 1217.351562 1592.359375 C 1263.328125 1561.769531 1307.460938 1533.191406 1341.269531 1512.789062 C 1343.609375 1511.378906 1345.929688 1509.851562 1348.171875 1508.289062 C 1350.730469 1506.511719 1352.878906 1504.929688 1354.800781 1503.480469 C 1380.121094 1484.371094 1408.871094 1477.449219 1433.128906 1480.160156 C 1446.71875 1481.671875 1459.160156 1486.199219 1469.210938 1493.300781 C 1480.261719 1501.101562 1488.449219 1511.871094 1492.429688 1525.128906 C 1497.261719 1541.210938 1495.621094 1560.351562 1484.789062 1581.300781 L 1365.050781 1813.578125 L 1686.039062 1911.480469 L 2046.378906 1805.519531 L 2089.050781 1793 C 2091.539062 1792.058594 2094.238281 1791.539062 2097.058594 1791.539062 C 2125.898438 1791.539062 2152.019531 1803.238281 2170.921875 1822.140625 C 2189.820312 1841.050781 2201.519531 1867.171875 2201.519531 1896.011719 C 2201.519531 1982.441406 1927 2110.117188 1775.070312 2180.777344 C 1740.710938 2196.761719 1712.761719 2209.753906 1697.46875 2217.699219 C 1693.449219 2220.0625 1688.671875 2221.214844 1683.679688 2220.707031 Z M 1030.238281 2131.886719 L 1030.238281 1647.949219 L 845.933594 1647.949219 L 845.933594 2204.542969 L 1030.238281 2204.542969 Z M 1860.261719 1064 C 1860.261719 1076.550781 1850.078125 1086.730469 1837.53125 1086.730469 C 1824.980469 1086.730469 1814.800781 1076.550781 1814.800781 1064 C 1814.800781 1052.109375 1808.449219 1041.03125 1798.191406 1032.769531 C 1786.539062 1023.390625 1770.121094 1017.578125 1751.699219 1017.578125 C 1733.28125 1017.578125 1716.851562 1023.390625 1705.210938 1032.769531 C 1694.949219 1041.03125 1688.589844 1052.109375 1688.589844 1064 C 1688.589844 1097.621094 1722.328125 1104.25 1756.050781 1110.878906 C 1808.140625 1121.109375 1860.261719 1131.359375 1860.261719 1202.320312 C 1860.261719 1228.609375 1847.390625 1252.121094 1826.601562 1268.878906 C 1812.398438 1280.308594 1794.398438 1288.558594 1774.429688 1292.171875 L 1774.429688 1311.648438 C 1774.429688 1324.199219 1764.25 1334.378906 1751.699219 1334.378906 C 1739.148438 1334.378906 1728.96875 1324.199219 1728.96875 1311.648438 L 1728.96875 1292.171875 C 1708.980469 1288.558594 1691 1280.308594 1676.800781 1268.878906 C 1656 1252.121094 1643.140625 1228.609375 1643.140625 1202.320312 C 1643.140625 1189.769531 1653.320312 1179.589844 1665.871094 1179.589844 C 1678.421875 1179.589844 1688.589844 1189.769531 1688.589844 1202.320312 C 1688.589844 1214.210938 1694.949219 1225.289062 1705.210938 1233.550781 C 1716.851562 1242.921875 1733.28125 1248.738281 1751.699219 1248.738281 C 1770.121094 1248.738281 1786.539062 1242.921875 1798.191406 1233.550781 C 1808.449219 1225.289062 1814.800781 1214.210938 1814.800781 1202.320312 C 1814.800781 1168.699219 1781.058594 1162.070312 1747.351562 1155.441406 C 1695.238281 1145.199219 1643.140625 1134.960938 1643.140625 1064 C 1643.140625 1037.710938 1656 1014.191406 1676.800781 997.441406 C 1691 986.011719 1708.980469 977.761719 1728.96875 974.148438 L 1728.96875 954.671875 C 1728.96875 942.121094 1739.148438 931.941406 1751.699219 931.941406 C 1764.25 931.941406 1774.429688 942.121094 1774.429688 954.671875 L 1774.429688 974.148438 C 1794.398438 977.761719 1812.398438 986.011719 1826.601562 997.441406 C 1847.390625 1014.191406 1860.261719 1037.710938 1860.261719 1064 "/>
</svg>
